<svg id="_6" data-name="6" xmlns="http://www.w3.org/2000/svg" viewBox="0 0 224.35 590.84"><defs><style>.cls-1{fill:#1a1a1a;}.cls-1,.cls-2,.cls-3,.cls-4{fill-rule:evenodd;}.cls-2,.cls-5{fill:#ff2745;}.cls-3{fill:#fff;}.cls-4{fill:#231f20;}</style></defs><path class="cls-1" d="M409.26,339.27v-5.18h5.35a5.66,5.66,0,1,0,0-11.31h-5.35v-3.6H439a36.69,36.69,0,0,0,36.65-36.64V153.78A36.69,36.69,0,0,0,439,117.14h-93.9a36.69,36.69,0,0,0-36.65,36.64V282.54a36.69,36.69,0,0,0,36.65,36.64h29.69v3.6h-5.36a5.66,5.66,0,0,0,0,11.31h5.36v5.18a5.64,5.64,0,0,0,5.63,5.67h23.24a5.64,5.64,0,0,0,5.65-5.67Zm-40.15-12h46a1.27,1.27,0,0,1,1.27,1.27h0a1.27,1.27,0,0,1-1.27,1.27h-46a1.27,1.27,0,0,1-1.27-1.27h0a1.27,1.27,0,0,1,1.27-1.27Zm-49.39-44.69V153.78a25.33,25.33,0,0,1,25.33-25.33H439a25.34,25.34,0,0,1,25.33,25.33V282.54A25.37,25.37,0,0,1,439,307.88h-93.9a25.36,25.36,0,0,1-25.33-25.34ZM386,319.18H398v3.6H386v-3.6Zm0,18.52v-3.61H398v3.61Z" transform="translate(-308.4 -93.03)"/><path class="cls-2" d="M321.34,160V281.1a24.79,24.79,0,0,0,24.77,24.76h91.78a24.79,24.79,0,0,0,24.76-24.76V160Z" transform="translate(-308.4 -93.03)"/><path class="cls-3" d="M354.44,282.09h75.1a8.68,8.68,0,0,0,8.67-8.66V217.82a8.69,8.69,0,0,0-8.67-8.65h-75.1a8.67,8.67,0,0,0-8.65,8.65v55.61a8.67,8.67,0,0,0,8.65,8.66Z" transform="translate(-308.4 -93.03)"/><polygon class="cls-4" points="107.17 151.36 107.17 141.52 117.1 141.52 117.1 134.98 107.17 134.98 107.17 125.1 100.73 125.1 100.73 134.98 90.81 134.98 90.81 141.52 100.73 141.52 100.73 151.36 107.17 151.36 107.17 151.36"/><path class="cls-4" d="M369.59,264.57l-1.54,4.55a8.17,8.17,0,0,1-2,3.44,4.15,4.15,0,0,1-2.92,1.19,4.7,4.7,0,0,1-3.52-1.4,4.86,4.86,0,0,1-1.37-3.55,10.32,10.32,0,0,1,.12-1.61,6.66,6.66,0,0,1,.37-1.35L370.45,234a12.09,12.09,0,0,1,3.18-5,7.6,7.6,0,0,1,9.25-.08,9.6,9.6,0,0,1,3,4.43l11.42,32.32c.23.69.39,1.31.51,1.84a7.16,7.16,0,0,1,.17,1.42,4.53,4.53,0,0,1-1.43,3.48,5.08,5.08,0,0,1-3.64,1.34,4.65,4.65,0,0,1-3.3-1.23,8.45,8.45,0,0,1-2.09-3.78l-1.26-4.17Zm2.91-9.44h10.77l-5.2-16.7-5.57,16.7Z" transform="translate(-308.4 -93.03)"/><path class="cls-1" d="M392,93a15.47,15.47,0,1,1-15.48,15.47A15.46,15.46,0,0,1,392,93Zm0,6.73a8.74,8.74,0,1,1-8.73,8.74A8.73,8.73,0,0,1,392,99.76Z" transform="translate(-308.4 -93.03)"/><path class="cls-5" d="M387.3,350.14a3.68,3.68,0,0,1,7.36,0c0,27.58-18.7,55.58-37.49,83.7-20,29.92-40.08,60-36.31,88.25,2.79,20.92,11.89,37,24.87,48.12C358.24,580.91,374.4,587,392,588.42a110.88,110.88,0,0,0,43.79-5.73c-9.52-9.58-21.09-18.53-32.48-27.32-11-8.52-21.85-16.89-30.67-25.69a65.83,65.83,0,0,1-17-28.72,53,53,0,0,1-1.23-24.22,39.51,39.51,0,0,1,10.73-20.64,41.66,41.66,0,0,1,18.71-10.62c16.87-4.69,38.28,3.09,53.87,13.48,5.09-12.11,15.4-23.58,31.68-27.09C483,429,495,430.42,504.7,434.93A46.48,46.48,0,0,1,522.21,449a51,51,0,0,1,9.3,20.35,58.92,58.92,0,0,1-4.44,37.06c-18,38.84-46.24,64.77-76.38,78.35-.72.33-1.44.64-2.16,1,7.67,9.21,13.32,19.17,15.43,30.3a42.6,42.6,0,0,1,.77,8.07c0,15-7.87,28.59-19,39-11,10.21-25.2,17.4-38.2,19.86a51.31,51.31,0,0,1-9.57,1,3.68,3.68,0,0,1,0-7.36,43.67,43.67,0,0,0,8.22-.81c11.7-2.22,24.59-8.74,34.55-18,9.78-9.11,16.68-20.83,16.68-33.61a37.34,37.34,0,0,0-.62-6.72c-2-10.41-7.69-19.89-15.45-28.79a119.26,119.26,0,0,1-49.85,7.18c-19.15-1.5-36.78-8.21-50.5-20-14.3-12.22-24.32-29.88-27.37-52.74-4.13-31,16.74-62.21,37.49-93.28,18.15-27.18,36.22-54.22,36.22-79.62Zm56.07,229.77c1.43-.59,2.87-1.21,4.3-1.85,28.66-12.92,55.58-37.64,72.73-74.73a51.55,51.55,0,0,0,3.93-32.46,43.8,43.8,0,0,0-7.94-17.42,39.45,39.45,0,0,0-14.76-11.86c-8.36-3.87-18.71-5.11-30.63-2.54-14.27,3.07-23.06,13.58-27.09,24.36.95.75,1.88,1.52,2.76,2.29A53.75,53.75,0,0,1,456.13,476c2.49,3.75,3.75,7.39,3.45,10.63-.38,3.93-2.77,6.95-7.6,8.55h0c-6.09,2-10.81.22-14-4a21.19,21.19,0,0,1-3.8-10.6,41.39,41.39,0,0,1,.89-13.12l.33-1.38c-14.21-10-34.22-17.87-49.5-13.63a34.72,34.72,0,0,0-15.48,8.72,32.37,32.37,0,0,0-8.71,16.89A45.65,45.65,0,0,0,362.78,499a58.37,58.37,0,0,0,15.08,25.47c8.48,8.47,19.14,16.71,30,25.08,12.52,9.68,25.27,19.53,35.54,30.35Zm-1.56-108.73a32.12,32.12,0,0,0-.34,8.71,14,14,0,0,0,2.32,6.93c1.25,1.63,3.23,2.29,5.9,1.41h0c1.7-.55,2.51-1.34,2.59-2.25.15-1.47-.69-3.52-2.26-5.89a46.43,46.43,0,0,0-8.14-8.85l-.06-.06Z" transform="translate(-308.4 -93.03)"/></svg>